<?xml version="1.0" encoding="utf-8"?>
<!-- Generator: Adobe Illustrator 26.1.0, SVG Export Plug-In . SVG Version: 6.00 Build 0)  -->
<svg version="1.1" id="Layer_1" xmlns="http://www.w3.org/2000/svg" xmlns:xlink="http://www.w3.org/1999/xlink" x="0px" y="0px"
	 viewBox="0 0 754 752.4" style="enable-background:new 0 0 754 752.4;" xml:space="preserve">
<style type="text/css">
	.st0{fill:#E0B318;}
	.st1{fill:#466FAA;}
	.st2{enable-background:new    ;}
</style>
<g>
	<g>
		<path class="st0" d="M346.1,211v98.4c0,0.7,0.7,1.5,1.5,1.5l0,0c1.5,0,3.7,0.7,5.1,0.7l0,0c2.9,0,5.9-2.9,5.9-5.9l0,0V191.9
			l-8.1,8.8C347.6,203,346.1,206.6,346.1,211z"/>
		<path class="st0" d="M474.6,302.1c-1.5-2.9-4.4-5.9-7.3-8.8c-3.7-3.7-6.6-7.3-10.3-11.8c-3.7-4.4-7.3-9.5-11-14
			c-1.5-2.2-2.2-4.4-2.9-6.6c-0.7-0.7-0.7-2.2-0.7-2.9c0-0.7,0-1.5,0-1.5c0.7-1.5,0.7-3.7-0.7-1.5c-3.7,3.7-6.6,8.8-8.8,14
			c-2.2,3.7-2.9,8.8-2.2,12.5c0.7,0.7,0.7,2.2,0.7,2.9c-1.5,2.9-3.7,5.9-5.1,9.5c-2.9,5.9-7.3,11.8-11.8,17.6l0,0
			c-11,11.8-23.5,19.8-38.2,25.7c-5.9,2.2-12.5,3.7-18.4,5.1v-7.3l0,0c-7.3,1.5-11.8,7.3-11.8,14.7v15.4c0,0.7,0.7,1.5,1.5,1.5h0.7
			c14-2.2,27.9-7.3,40.4-15.4c12.5-8.1,22.8-18.4,30.8-30.1l0.7-1.5c0,4.4,0.7,8.8,2.9,13.2c5.9,12.5,20.6,22,33.8,14
			c2.9-1.5,5.1-3.7,6.6-6.6c3.7-5.1,7.3-11.8,10.3-17.6C477.6,314.6,477.6,308,474.6,302.1z M462.1,327.1
			c-5.9,0.7-12.5-0.7-17.6-5.1c-5.9-4.4-9.5-11-11-17.6c-0.7-2.9-0.7-6.6-0.7-10.3c0-1.5,0.7-2.9,0.7-5.1c0-0.7,0.7-0.7,0.7-1.5
			c0.7,1.5,1.5,2.9,2.2,3.7c5.1,7.3,11,14.7,17.6,21.3c4.4,3.7,8.1,8.8,10.3,14C463.6,327.1,462.9,327.1,462.1,327.1z"/>
		
			<rect x="374.6" y="186.8" transform="matrix(0.7071 -0.7071 0.7071 0.7071 -26.3594 329.1507)" class="st0" width="19.1" height="19.1"/>
		<polygon class="st0" points="321.9,245.6 312.3,236.8 302.8,246.3 312.3,256.6 321.9,247 330.7,256.6 341,246.3 330.7,236.8 		"/>
		<path class="st0" d="M420.3,217.7c-1.5,1.5-2.9,3.7-3.7,5.9c-2.2,8.1-6.6,18.4-1.5,26.4c6.6,8.8,15.4-5.1,16.9-11
			c0.7-2.2-1.5,0.7-2.2,0.7c-0.7,1.5-1.5,2.2-2.2,3.7l0,0c-0.7,0.7-1.5,0.7-2.2,0.7c-0.7,0-2.2-0.7-2.9-0.7
			c-1.5-1.5-2.9-3.7-3.7-5.9c-1.5-5.9,1.5-12.5,2.9-18.4C422.5,216.2,421.8,216.2,420.3,217.7z"/>
		<path class="st0" d="M419.5,348.4c-1.5,1.5-2.9,4.4-3.7,7.3c-2.9,8.8-7.3,20.6-1.5,29.4c7.3,10.3,17.6-5.9,19.1-12.5
			c0.7-2.2-2.2,0.7-2.9,0.7c-0.7,1.5-1.5,2.9-2.9,4.4l0,0c-0.7,0.7-1.5,0.7-2.9,0.7c-1.5,0-2.9-0.7-3.7-0.7
			c-2.2-1.5-3.7-3.7-3.7-6.6c-1.5-7.3,1.5-14,3.7-20.6C421.8,347.7,421,346.9,419.5,348.4z"/>
		<path class="st0" d="M371.8,266.1c-1.5,1.5-2.9,3.7-3.7,5.9c-2.2,8.1-6.6,18.4-1.5,26.4c6.6,8.8,15.4-5.1,16.9-11
			c0.7-2.2-2.2,0.7-2.2,0.7c-0.7,1.5-1.5,2.9-2.2,3.7l0,0c-0.7,0.7-1.5,0.7-2.2,0.7c-1.5,0-2.2-0.7-2.9-0.7
			c-1.5-1.5-2.9-3.7-2.9-5.9c-1.5-5.9,1.5-12.5,2.9-18.4C373.3,265.4,373.3,265.4,371.8,266.1z"/>
		<path class="st0" d="M409.3,266.1c-5.9-12.5-14-23.5-19.8-36c-2.9-4.4-3.7-9.5-3.7-14c0-1.5-1.5,0.7-1.5,0.7
			c-2.9,2.9-5.1,5.9-6.6,9.5c-1.5,2.9-3.7,5.9-3.7,9.5c0,6.6,1.5,13.2,5.1,18.4c2.2,4.4,4.4,8.8,7.3,13.2c5.9,9.5,11,18.4,14.7,28.6
			c0.7,1.5,0.7,2.2,0.7,3.7c-0.7,0.7-0.7,0.7-1.5,0.7c-8.8,5.1-18.4,8.8-27.9,11c-4.4,0.7-9.5,1.5-14,2.2c-3.7,0.7-7.3,0.7-11,0
			h-0.7c-3.7-0.7-7.3-1.5-10.3-4.4c-2.9-2.9-3.7-7.3-2.9-11.8c0-5.1,0.7-10.3,1.5-15.4c0.7-5.1-0.7-9.5-2.9-14
			c-8.8-11-19.8,5.9-25,12.5c-5.9,8.1-11.8,16.9-16.2,26.4c-1.5,2.9-2.9,5.9-3.7,8.8c-1.5-2.2-3.7-5.1-5.1-7.3
			c-3.7-7.3-6.6-15.4-7.3-22.8l0,0c-0.7-5.1,0.7-11,2.9-15.4c3.7-7.3,8.1-14,14-20.6c7.3-8.1,14.7-15.4,22.8-22
			c8.8-8.8,58-49.9,61-78.6l0,0c0-0.7,0-0.7,0-0.7l0,0c0-2.9-2.2-5.9-5.1-7.3c-0.7-0.7-1.5-0.7-2.9-0.7c-4.4,0-8.1,3.7-7.3,8.1
			c0,3.7,2.9,7.3,6.6,7.3c3.7,19.1-72,67.6-78.6,73.4c-21.3,19.8-21.3,27.9-20.6,49.9c-2.2,5.1-3.7,11.8-3.7,17.6
			c-0.7,8.1,0.7,16.2,2.9,23.5c5.9,16.2,18.4,28.6,33.1,36.7l5.9,3.7c0.7,0.7,2.9,1.5,3.7,1.5c1.5-0.7,2.2-2.2,2.9-3.7
			c1.5-2.2,2.9-5.1,4.4-7.3c1.5-2.2,5.1-7.3,3.7-9.5c-0.7-0.7-1.5-1.5-2.2-2.9c-8.8-7.3-16.9-16.9-19.8-27.9
			c-0.7-4.4,0-9.5,2.9-13.2c2.2-3.7,5.9-8.8,10.3-9.5c2.9-0.7,5.9,0.7,8.1,2.9c4.4,5.1,2.9,14,2.2,19.8c-1.5,5.9-0.7,11.8,0.7,17.6
			c2.9,5.1,7.3,7.3,13.2,8.1c3.7,0.7,7.3,0.7,11.8,0c4.4-0.7,8.1-0.7,11.8-1.5s7.3-1.5,10.3-2.9c13.2-2.9,25-10.3,33.1-19.8
			c2.9-3.7,5.9-8.8,8.1-13.2c2.9-3.7,3.7-8.8,4.4-13.2C414.4,277.1,412.2,272,409.3,266.1z"/>
		<path class="st1" d="M505.5,287.4c-1.5-28.6-16.9-54.4-35.3-74.9c-27.9-33.1-58.8-65.4-80.8-102.8c-5.9-9.5-11-19.8-14.7-30.8
			c-1.5-4.4-2.2-8.8-2.9-14c0-3.7,0.7-7.3,1.5-11l8.1-2.9c2.2-2.9,3.7-5.9,5.1-9.5c-2.2,0.7-3.7,0.7-5.9,1.5
			c-3.7,0.7-8.8,0.7-12.5-1.5c-2.2-0.7-3.7-2.2-5.1-3.7l0,0c-0.7-1.5-0.7-3.7,1.5-5.1l0.7-0.7c5.9-2.9,12.5,0,15.4,5.1l0,0
			c1.5-1.5,2.2-2.9,3.7-4.4c0.7-0.7,2.9-3.7,2.2-5.1c-2.2-5.1-8.1-8.1-13.2-6.6c-5.9,1.5-10.3,5.1-13.2,11c-2.9,5.1-5.9,11.8,0,16.2
			c0.7,0.7,1.5,0.7,1.5,1.5c-3.7,2.9-7.3,5.9-11,10.3c1.5-0.7,9.5-2.9,16.2-5.1c-2.2,2.9-3.7,5.9-5.1,9.5
			c-5.9,17.6-0.7,35.3,7.3,51.4c11,19.8,23.5,38.9,38.2,56.6c26.4,33.1,63.9,64.6,78.6,105c5.9,16.2,9.5,35.3,3.7,52.1
			c-5.1,16.9-22,34.5-28.6,41.9c-0.7,0.7-0.7,2.9-0.7,3.7c0.7,1.5,2.9,2.2,5.1,1.5c0,0,0.7,0,0.7-0.7c11.8-11,22-23.5,28.6-38.2
			C502.5,323.4,506.2,305.8,505.5,287.4z"/>
		<path class="st1" d="M259.4,445.3l14-8.1l-2.9-5.1l-14,8.1c-2.2,1.5-3.7,2.9-5.1,5.1c-0.7,1.5-1.5,3.7-1.5,5.9s0.7,4.4,2.2,5.9
			c0.7,1.5,2.9,3.7,4.4,5.1c1.5,0.7,3.7,1.5,5.9,1.5c2.2,0,4.4-0.7,6.6-2.2l14-8.1l-2.9-5.1l-14,8.1c-1.5,0.7-2.9,1.5-5.1,1.5
			c-1.5-0.7-2.9-1.5-3.7-2.9c-0.7-1.5-1.5-2.9-0.7-4.4C256.5,447.5,257.2,446.1,259.4,445.3z"/>
		<path class="st1" d="M271.2,481.3c0.7,1.5,0.7,2.9,2.2,3.7c1.5,1.5,2.9,2.2,3.7,2.9c1.5,0.7,2.9,0.7,5.1,0
			c1.5-0.7,3.7-1.5,5.1-2.9c1.5-1.5,2.2-2.9,2.9-4.4c0.7-1.5,0.7-2.9,0.7-5.1c-0.7-1.5-1.5-2.9-2.2-3.7c-0.7-0.7-2.2-1.5-3.7-2.2
			c-1.5-0.7-2.9-0.7-3.7,0l0,0c0.7-0.7,1.5-1.5,2.9-2.2l-3.7-3.7l-20.6,19.1l4.4,4.4l5.1-4.4c1.5-1.5,2.2-2.2,2.9-3.7l0,0
			C271.2,479.1,271.2,480.6,271.2,481.3z M276.3,473.2c0.7-0.7,2.2-1.5,3.7-1.5c1.5,0,2.2,0.7,2.9,1.5c0.7,0.7,1.5,2.2,1.5,3.7
			c0,1.5-0.7,2.9-1.5,3.7c-0.7,0.7-2.2,1.5-3.7,1.5s-2.9-0.7-3.7-1.5c-0.7-0.7-1.5-2.2-1.5-3.7C274.9,475.5,275.6,474,276.3,473.2
			L276.3,473.2z"/>
		<path class="st1" d="M299.1,504.8l5.1,3.7l5.9-9.5c1.5-1.5,2.2-3.7,1.5-6.6c-0.7-2.2-1.5-3.7-3.7-5.1c-1.5-0.7-2.9-1.5-3.7-1.5
			c-1.5,0-2.9,0.7-3.7,0.7l0,0c0.7-0.7,1.5-1.5,2.2-2.2c0.7-0.7,1.5-1.5,2.2-2.9l2.9-3.7l-5.1-3.7l-16.2,22.8l5.1,3.7l5.9-8.8
			c0.7-0.7,1.5-1.5,2.9-2.2c0.7-0.7,2.2,0,2.9,0.7c0.7,0.7,1.5,1.5,1.5,2.2c0,0.7,0,2.2-0.7,2.9L299.1,504.8z"/>
		<path class="st1" d="M329.9,499c-1.5-0.7-3.7-1.5-5.9-0.7c-1.5,0-3.7,0.7-5.1,1.5c-1.5,1.5-2.9,2.9-3.7,4.4
			c-0.7,1.5-0.7,3.7-0.7,5.1c0,1.5,0.7,2.9,1.5,5.1c1.5,1.5,2.9,2.9,4.4,2.9c1.5,0.7,3.7,1.5,5.9,0.7c1.5,0,3.7-0.7,5.1-1.5
			c1.5-1.5,2.9-2.9,2.9-4.4c0.7-1.5,0.7-3.7,0.7-5.1c0-1.5-0.7-3.7-2.2-5.1C332.9,500.4,331.4,499.7,329.9,499z M329.9,510
			c-0.7,1.5-1.5,2.2-2.9,2.9c-1.5,0.7-2.9,0.7-3.7,0c-1.5-0.7-2.2-1.5-2.9-2.9c-0.7-1.5-0.7-2.9,0.7-3.7c0.7-1.5,1.5-2.2,2.9-2.9
			c1.5-0.7,2.9-0.7,3.7,0c1.5,0.7,2.2,1.5,2.9,2.9C330.7,507,330.7,508.5,329.9,510L329.9,510z"/>
		<path class="st1" d="M352,498.2l-5.9-1.5l-5.1,20.6c-0.7,1.5-0.7,3.7,0.7,5.1c0.7,1.5,2.2,2.9,3.7,2.9c0.7,0,1.5,0.7,2.9,0.7
			s1.5,0,2.2,0v-4.4c-0.7,0-1.5,0-1.5,0c-0.7,0-0.7-0.7-1.5-0.7c-0.7,0-0.7-1.5,0-1.5L352,498.2z"/>
		<path class="st1" d="M378.4,529.1l1.5-27.9l-5.9-0.7l-0.7,5.1c0,2.2,0,4.4,0.7,6.6l0,0c-0.7-1.5-1.5-2.2-2.9-2.9
			c-1.5-0.7-2.9-1.5-3.7-1.5c-3.7-0.7-6.6,1.5-8.8,4.4c-0.7,1.5-1.5,3.7-1.5,5.1c0,1.5,0,3.7,0.7,5.1c2.2,4.4,7.3,5.9,11.8,4.4
			c1.5-0.7,2.2-1.5,2.9-2.2l0,0c0,0.7,0,1.5-0.7,2.9L378.4,529.1z M371.1,521.7c-0.7,0.7-2.2,1.5-3.7,1.5s-2.9-0.7-3.7-1.5
			c-0.7-0.7-1.5-2.9-0.7-3.7c0-1.5,0.7-2.9,1.5-3.7c0.7-0.7,2.2-1.5,3.7-1.5s2.2,0.7,2.9,1.5c0.7,1.5,0.7,2.9,0.7,3.7
			C373.3,519.5,372.5,521,371.1,521.7L371.1,521.7z"/>
		
			<rect x="387.2" y="508.5" transform="matrix(0.9961 -8.836839e-02 8.836839e-02 0.9961 -44.2863 36.5078)" class="st1" width="5.9" height="19.8"/>
		<path class="st1" d="M389.4,506.3c0.7,0,1.5-0.7,2.9-1.5c0.7-0.7,0.7-1.5,0.7-2.9c0-0.7-0.7-1.5-1.5-2.2c-0.7-0.7-1.5-0.7-2.9-0.7
			c-1.5,0-1.5,0.7-2.9,1.5c-0.7,0.7-0.7,1.5-0.7,2.9c0,1.5,0.7,1.5,1.5,2.2C387.2,506.3,388,506.3,389.4,506.3z"/>
		<path class="st1" d="M410.7,509.2c0.7-0.7,1.5,0,2.9,0.7c0.7,0.7,1.5,1.5,1.5,2.9l2.9,11l5.9-1.5l-2.9-11
			c-0.7-2.2-1.5-4.4-3.7-5.9c-1.5-0.7-3.7-1.5-5.9-0.7c-1.5,0.7-2.9,0.7-3.7,2.2c-0.7,0.7-1.5,2.2-1.5,3.7l0,0
			c0-1.5-0.7-2.9-0.7-3.7l-5.1,1.5l5.1,19.1l5.9-1.5l-2.9-10.3c-0.7-1.5,0-2.2,0.7-3.7C408.5,510.7,409.3,509.2,410.7,509.2z"/>
		<path class="st1" d="M443.8,518c-0.7,0.7-2.2,0.7-2.9,1.5c-1.5,0.7-2.9,0.7-4.4,0.7l0.7,5.1c1.5,0,3.7,0,5.1-0.7
			c1.5-0.7,2.9-0.7,4.4-1.5c2.9-1.5,5.1-2.9,5.9-5.9c0.7-2.9,0.7-5.1-0.7-8.1l-8.8-17.6l-5.1,2.9c0.7,0.7,0.7,1.5,1.5,2.9l0,0
			c-0.7-0.7-2.2-1.5-3.7-1.5s-2.9,0-4.4,0.7c-2.9,1.5-5.1,4.4-5.1,8.1c0,1.5,0.7,3.7,1.5,5.1c0.7,1.5,1.5,2.9,3.7,3.7
			c1.5,0.7,2.9,1.5,4.4,1.5s3.7-0.7,5.1-0.7c1.5-0.7,2.2-1.5,2.9-2.9c0.7-0.7,0.7-2.2,0.7-2.9l0,0c0.7,1.5,0.7,2.9,1.5,3.7
			c0.7,0.7,0.7,2.2,0,2.9C446,516.6,444.5,517.3,443.8,518z M442.3,507c-0.7,1.5-1.5,2.2-2.2,2.9c-1.5,0.7-2.9,0.7-3.7,0
			c-1.5-0.7-2.2-1.5-2.9-2.9c-0.7-1.5-0.7-2.9-0.7-3.7c0.7-1.5,1.5-2.2,2.9-2.9c0.7-0.7,2.2-0.7,3.7,0c1.5,0.7,2.2,1.5,2.9,2.9
			C442.3,504.1,442.3,505.6,442.3,507z"/>
		<polygon class="st1" points="459.2,475.5 474.6,491.6 479.8,487.9 464.4,471 470.2,465.9 467.3,461.5 449.7,476.9 453.3,481.3 		
			"/>
		<path class="st1" d="M490.8,474.7l-7.3-5.9c-0.7-0.7-1.5-1.5-1.5-2.9c0-1.5,0.7-2.2,0.7-2.9c0.7-0.7,0.7-0.7,1.5-1.5l-2.9-4.4
			c-0.7,0.7-1.5,0.7-2.2,1.5c-0.7,0.7-1.5,2.2-1.5,3.7s0.7,2.2,0.7,3.7l0,0c-0.7-0.7-1.5-1.5-2.9-2.2l-3.7,4.4l15.4,12.5
			L490.8,474.7z"/>
		<path class="st1" d="M506.2,451.9l2.9-5.1l-16.9-9.5l-2.9,5.1l8.8,5.1c0.7,0.7,1.5,1.5,2.2,2.9c0.7,0.7,0.7,2.2-0.7,2.9
			c-0.7,0.7-1.5,1.5-2.2,1.5s-2.2,0-2.9-0.7l-9.5-5.1l-2.9,5.1l9.5,5.1c2.2,1.5,4.4,1.5,7.3,1.5c2.2-0.7,3.7-1.5,5.1-3.7
			c0.7-1.5,0.7-2.9,0.7-3.7c0-1.5-0.7-2.9-1.5-3.7l0,0C504,451.2,505.5,451.9,506.2,451.9z"/>
		<path class="st1" d="M515.8,433.6c0.7-2.2,0.7-4.4,0.7-5.9c-0.7-1.5-1.5-2.9-3.7-3.7c-1.5-0.7-2.9-0.7-4.4,0.7
			c-1.5,1.5-2.9,2.9-3.7,5.1c-0.7,0.7-0.7,1.5-1.5,1.5c-0.7,0.7-0.7,0.7-1.5,0c-0.7,0-0.7-0.7-0.7-0.7c0-0.7,0-1.5,0.7-1.5
			c0.7-0.7,0.7-1.5,1.5-2.9c0.7-0.7,1.5-1.5,1.5-2.2l-3.7-2.9c-0.7,0.7-1.5,1.5-2.2,2.9c-0.7,0.7-1.5,2.2-1.5,3.7
			c-0.7,1.5-0.7,3.7-0.7,5.9c0.7,1.5,1.5,2.9,3.7,3.7c1.5,0.7,2.9,0.7,4.4-0.7c1.5-0.7,2.9-2.9,3.7-4.4c0.7-0.7,0.7-1.5,1.5-2.2
			c0.7-0.7,0.7-0.7,1.5-0.7c0.7,0,0.7,0.7,0.7,0.7c0,0.7,0,1.5-0.7,1.5c-0.7,2.2-2.2,3.7-3.7,5.9l3.7,3.7
			C512.8,438.7,514.3,436.5,515.8,433.6z"/>
		<path class="st1" d="M507.7,404.2l-5.1-0.7l-0.7,5.1l-5.1-1.5l-0.7,5.9l5.1,0.7l-0.7,2.9l5.1,0.7l0.7-2.9l7.3,1.5
			c1.5,0.7,3.7,0.7,5.9-0.7c1.5-0.7,2.9-2.9,2.9-4.4c0.7-1.5,0.7-3.7,0-5.1l-5.1,0.7c0,0.7,0,1.5,0,2.2c-0.7,1.5-1.5,1.5-2.9,1.5
			l-7.3-1.5L507.7,404.2z"/>
		<path class="st1" d="M537.1,361.6C554.7,496,409.3,592.2,293.2,521c-56.6-34.5-85.9-105-72.7-169.7c1.5-7.3,3.7-15.4,5.9-22
			c-2.2,5.9-4.4,11.8-5.9,17.6c-3.7,15.4-5.9,30.1-5.9,45.5c3.7,130.7,150.6,203.4,257.1,128.5C522.4,485,548.1,422.6,537.1,361.6z"
			/>
		<path class="st0" d="M258.7,426.2c6.6-0.7,13.2-0.7,19.8,0.7c22.8,54.4,84.5,80.8,138.8,59.5c1.5-0.7,5.9-2.9,7.3-3.7
			c1.5-0.7,5.9-2.9,8.8-4.4c1.5-0.7,5.1-2.9,5.9-3.7c2.9-2.2,5.9-5.1,9.5-7.3c19.1-16.2,31.6-39.7,35.3-64.6
			c-20.6,85.2-124.9,114.6-185.8,49.9c-7.3-7.3-13.2-16.2-17.6-25c9.5,2.2,18.4,5.9,27.2,11.8c18.4,11,37.5,20.6,58,27.2
			c15.4,5.1,26.4,1.5,38.9-7.3c25.7-17.6,91.1-70.5,99.9-77.1c5.1-4.4,2.9-14-8.1-10.3c-16.2,5.1-69,36.7-83,45.5
			c-9.5,5.9-20.6,9.5-31.6,9.5c-9.5-0.7-30.1-7.3-25.7-19.8c6.6-20.6,42.6,6.6,50.7-8.8c5.1-10.3-13.2-15.4-19.1-16.9
			c-24.2-6.6-49.2-11-74.9-12.5c-28.6-1.5-61,5.1-76.4,28.6c-1.5,2.2-2.9,5.1-3.7,7.3c-2.2,4.4-3.7,8.8-4.4,14
			c-0.7,7.3-0.7,14,1.5,20.6C238.1,432.9,248.4,428.4,258.7,426.2z"/>
	</g>
	<g class="st2">
		<path class="st1" d="M208,662.7h-15.4l-5.9-14h-35.3l-5.9,14h-16.2l31.6-72h15.4L208,662.7z M155.9,636.3h25l-8.1-20.6
			c-2.2-5.9-3.7-9.5-4.4-11.8l0,0l-2.2,5.9l-2.2,5.9L155.9,636.3z"/>
		<path class="st1" d="M282.2,590.8h14v72h-14v-38.9c0-2.9,0-6.6,0.7-10.3l0,0c-1.5,2.2-3.7,5.9-6.6,9.5l-16.9,24.2h-5.1l-16.9-24.2
			c-2.9-4.4-5.1-7.3-6.6-9.5l0,0c0,2.9,0.7,6.6,0.7,10.3V662h-14v-71.2h14l25.7,37.5L282.2,590.8z"/>
		<path class="st1" d="M383.6,662.7h-15.4l-5.9-14H327l-5.9,14h-15.4l31.6-72h15.4L383.6,662.7z M331.4,636.3h25.7l-8.1-20.6
			c-2.2-5.9-3.7-9.5-4.4-11.8l0,0l-2.2,5.9l-2.2,5.9L331.4,636.3z"/>
		<path class="st1" d="M463.6,662.7h-15.4l-5.9-14h-35.3l-5.9,14h-15.4l31.6-72h15.4L463.6,662.7z M411.5,636.3h25.7l-8.1-20.6
			c-2.2-5.9-3.7-9.5-4.4-11.8l0,0l-2.2,5.9l-2.2,5.9L411.5,636.3z"/>
		<path class="st1" d="M473.9,662.7v-72h13.2l28.6,39.7c1.5,2.2,3.7,5.9,6.6,9.5l0,0c-0.7-3.7-0.7-8.1-0.7-13.2V590h14v72h-13.2
			L493,622.3c-2.9-3.7-5.1-7.3-6.6-9.5l0,0c0.7,2.9,0.7,6.6,0.7,13.2v36.7H473.9z"/>
		<path class="st1" d="M624.5,662.7H609l-5.9-14h-35.3l-5.9,14h-15.4l31.6-72h15.4L624.5,662.7z M572.3,636.3H598l-8.1-20.6
			c-2.2-5.9-3.7-9.5-4.4-11.8l0,0l-2.2,5.9l-2.2,5.9L572.3,636.3z"/>
	</g>
	<g class="st2">
		<path class="st0" d="M158.8,685.5v8.1h-21.3v12.5h19.8v7.3h-19.8v16.2h-8.8v-44.1H158.8z"/>
		<path class="st0" d="M183.1,727.4c-3.7-2.2-5.9-4.4-8.1-8.1c-2.2-3.7-2.9-7.3-2.9-11.8s0.7-8.8,2.9-12.5s4.4-5.9,8.1-8.1
			c3.7-2.2,7.3-2.9,12.5-2.9c4.4,0,8.1,0.7,11.8,2.9c3.7,2.2,5.9,4.4,8.1,8.1c2.2,3.7,2.9,7.3,2.9,11.8s-0.7,8.8-2.9,12.5
			c-2.2,3.7-4.4,5.9-8.1,8.1c-3.7,2.2-7.3,2.9-12.5,2.9C190.4,730.3,186.7,728.8,183.1,727.4z M202.9,720.8c2.2-1.5,3.7-2.9,5.1-5.1
			c1.5-2.2,1.5-5.1,1.5-8.1c0-2.9-0.7-5.9-1.5-8.1c-1.5-2.2-2.9-4.4-5.1-5.1c-2.2-1.5-4.4-2.2-7.3-2.2s-5.1,0.7-7.3,2.2
			c-2.2,1.5-3.7,2.9-5.1,5.1c-1.5,2.2-1.5,5.1-1.5,8.1c0,2.9,0.7,5.9,1.5,8.1c1.5,2.2,2.9,4.4,5.1,5.1c2.2,1.5,4.4,2.2,7.3,2.2
			C197.7,722.2,200.7,721.5,202.9,720.8z"/>
		<path class="st0" d="M242.5,727.4c-2.9-1.5-5.1-3.7-6.6-6.6c-1.5-2.9-2.2-6.6-2.2-10.3v-25.7h8.8v25.7c0,3.7,0.7,6.6,2.9,8.8
			c2.2,2.2,4.4,2.9,7.3,2.9s5.9-0.7,7.3-2.9c2.2-2.2,2.9-5.1,2.9-8.8v-25.7h8.8v25.7c0,3.7-0.7,7.3-2.2,10.3
			c-1.5,2.9-3.7,5.1-6.6,6.6c-2.9,1.5-5.9,2.2-10.3,2.2C249.2,730.3,245.5,728.8,242.5,727.4z"/>
		<path class="st0" d="M290.3,728.8v-44.1h8.1L316,709c0.7,1.5,2.2,3.7,4.4,5.9l0,0c0-2.2-0.7-4.4-0.7-8.1v-22h8.8v44.1h-8.1
			l-17.6-24.2c-1.5-2.2-2.9-4.4-4.4-5.9l0,0c0,1.5,0.7,4.4,0.7,8.1v22H290.3z"/>
		<path class="st0" d="M364.5,685.5c4.4,0,8.1,0.7,11.8,2.9c3.7,1.5,5.9,4.4,8.1,7.3c2.2,2.9,2.9,7.3,2.9,11.8s-0.7,8.1-2.9,11.8
			s-4.4,5.9-8.1,8.1c-3.7,2.2-7.3,2.9-11.8,2.9h-16.9v-44.1h16.9V685.5z M364.5,721.5c2.9,0,5.1-0.7,7.3-1.5
			c2.2-1.5,3.7-2.9,4.4-5.1c1.5-2.2,1.5-4.4,1.5-7.3c0-4.4-1.5-8.1-3.7-10.3c-2.2-2.9-5.9-3.7-9.5-3.7h-8.8v28.6h8.8
			C364.5,722.2,364.5,721.5,364.5,721.5z"/>
		<path class="st0" d="M443.8,728.8h-9.5l-3.7-8.8h-21.3l-3.7,8.8H396l19.1-44.1h9.5L443.8,728.8z M412.2,712.7h15.4l-5.1-12.5
			c-1.5-3.7-2.2-5.9-2.9-6.6l0,0l-1.5,3.7l-1.5,3.7L412.2,712.7z"/>
		<path class="st0" d="M449.7,685.5h36v7.3h-14v36.7h-8.8v-36.7h-14L449.7,685.5L449.7,685.5z"/>
		<path class="st0" d="M508.4,728.8h-8.8v-44.1h8.8V728.8z"/>
		<path class="st0" d="M535.6,727.4c-3.7-2.2-5.9-4.4-8.1-8.1c-2.2-3.7-2.9-7.3-2.9-11.8s0.7-8.8,2.9-12.5c2.2-3.7,4.4-5.9,8.1-8.1
			c3.7-2.2,7.3-2.9,12.5-2.9c4.4,0,8.1,0.7,11.8,2.9c3.7,2.2,5.9,4.4,8.1,8.1c2.2,3.7,2.9,7.3,2.9,11.8s-0.7,8.8-2.9,12.5
			c-2.2,3.7-4.4,5.9-8.1,8.1c-3.7,2.2-7.3,2.9-12.5,2.9C542.9,730.3,539.3,728.8,535.6,727.4z M555.4,720.8c2.2-1.5,3.7-2.9,5.1-5.1
			c1.5-2.2,1.5-5.1,1.5-8.1c0-2.9-0.7-5.9-1.5-8.1c-1.5-2.2-2.9-4.4-5.1-5.1c-2.2-0.7-4.4-2.2-7.3-2.2s-5.1,0.7-7.3,2.2
			c-2.2,1.5-3.7,2.9-5.1,5.1c-1.5,2.2-1.5,5.1-1.5,8.1c0,2.9,0.7,5.9,1.5,8.1c1.5,2.2,2.9,4.4,5.1,5.1c2.2,1.5,4.4,2.2,7.3,2.2
			C550.3,722.2,553.2,721.5,555.4,720.8z"/>
		<path class="st0" d="M587,728.8v-44.1h8.1l17.6,24.2c0.7,1.5,2.2,3.7,4.4,5.9l0,0c0-2.2-0.7-4.4-0.7-8.1v-22h8.8v44.1h-8.1
			l-17.6-24.2c-1.5-2.2-2.9-4.4-4.4-5.9l0,0c0,1.5,0.7,4.4,0.7,8.1v22H587z"/>
	</g>
</g>
</svg>
